# xmcd CD database file
#
# Track frame offsets:
#	150
#	32775
#	82050
#	106875
#	117300
#	164100
#	188250
#	224025
#	245025
#	280725
#	308400
#
# Disc length: 4381 seconds
#
# Revision: 1
# Processed by: cddbd v1.5.2PL0 Copyright (c) Steve Scherf et al.
# Submitted via: CDex 1.81
#
DISCID=9a111b0b
DTITLE=Artisti Vari - A story of Jazz - Classic notes
DYEAR=2007
DGENRE=Jazz
TTITLE0=Song for my Father - Horace Silver
TTITLE1=Autumn leaves - Cannonball Adderley
TTITLE2=Cantaloupe island - Herbie Hancock
TTITLE3=My funny Valentine - Chet Baker
TTITLE4=The rumproller - Lee Morgan
TTITLE5=Chitlins con carne - Kenny Burrell
TTITLE6=Back to the chicken shack - Jimmy Smith
TTITLE7=September second - Michel Petrucciani
TTITLE8=I'm old fashioned - John Coltrane
TTITLE9=Along come Betty - Art Blakey and The  Jazz Messengers
TTITLE10=Avila and tequila - Hank Mobley Quartet
EXTD=YEAR: 2007
EXTT0=
EXTT1=
EXTT2=
EXTT3=
EXTT4=
EXTT5=
EXTT6=
EXTT7=
EXTT8=
EXTT9=
EXTT10=
PLAYORDER=
